<?xml version="1.0" encoding="UTF-8" standalone="no"?>
<!-- Created with Inkscape (http://www.inkscape.org/) -->

<svg width="48" height="48" viewBox="0 0 48 48" version="1.1" id="svg1" xml:space="preserve"
  xmlns:xlink="http://www.w3.org/1999/xlink" xmlns="http://www.w3.org/2000/svg" xmlns:svg="http://www.w3.org/2000/svg">
  <defs id="defs1">
    <linearGradient id="linearGradient6">
      <stop style="stop-color:#0ae448;stop-opacity:1;" offset="0" id="stop6" />
      <stop style="stop-color:#dc512a;stop-opacity:0.78599221;" offset="1" id="stop7" />
    </linearGradient>
    <linearGradient xlink:href="#linearGradient6" id="linearGradient7" x1="0" y1="232" x2="512.00305" y2="232"
      gradientUnits="userSpaceOnUse" />
  </defs>
  <g style="fill:#000000;fill-opacity:1;stroke:currentColor;stroke-width:0" id="g1"
    transform="scale(0.09374944,0.10344828)">
    <path
      d="m 488.6,104.1 c 16.7,18.1 24.4,39.7 23.3,65.7 v 202.4 c -0.4,26.4 -9.2,48.1 -26.5,65.1 -17.2,17 -39.1,25.9 -65.5,26.7 H 92.02 C 65.57,463.2 43.81,454.2 26.74,436.8 9.682,419.4 0.7667,396.5 0,368.2 V 169.8 C 0.7667,143.8 9.682,122.2 26.74,104.1 43.81,87.75 65.57,78.77 92.02,78 H 121.4 L 96.05,52.19 C 90.3,46.46 87.42,39.19 87.42,30.4 87.42,21.6 90.3,14.34 96.05,8.603 101.8,2.868 109.1,0 117.9,0 126.7,0 134,2.868 139.8,8.603 L 213.1,78 h 88 L 375.6,8.603 C 381.7,2.868 389.2,0 398,0 c 8.8,0 16.1,2.868 21.9,8.603 5.7,5.737 8.6,12.997 8.6,21.797 0,8.79 -2.9,16.06 -8.6,21.79 L 394.6,78 h 29.3 c 26.4,0.77 48,9.75 64.7,26.1 z m -38.8,69.7 c -0.4,-9.6 -3.7,-17.4 -10.7,-23.5 -5.2,-6.1 -14,-9.4 -22.7,-9.8 H 96.05 c -9.59,0.4 -17.45,3.7 -23.58,9.8 -6.14,6.1 -9.4,13.9 -9.78,23.5 v 194.4 c 0,9.2 3.26,17 9.78,23.5 6.52,6.5 14.38,9.8 23.58,9.8 H 416.4 c 9.2,0 17,-3.3 23.3,-9.8 6.3,-6.5 9.7,-14.3 10.1,-23.5 z m -264.3,42.7 c 6.3,6.3 9.7,14.1 10.1,23.2 V 273 c -0.4,9.2 -3.7,16.9 -9.8,23.2 -6.2,6.3 -14,9.5 -23.6,9.5 -9.6,0 -17.5,-3.2 -23.6,-9.5 -6.1,-6.3 -9.4,-14 -9.8,-23.2 v -33.3 c 0.4,-9.1 3.8,-16.9 10.1,-23.2 6.3,-6.3 13.2,-9.6 23.3,-10 9.2,0.4 17,3.7 23.3,10 z m 191.5,0 c 6.3,6.3 9.7,14.1 10.1,23.2 V 273 c -0.4,9.2 -3.7,16.9 -9.8,23.2 -6.1,6.3 -14,9.5 -23.6,9.5 -9.6,0 -17.4,-3.2 -23.6,-9.5 -7,-6.3 -9.4,-14 -9.7,-23.2 v -33.3 c 0.3,-9.1 3.7,-16.9 10,-23.2 6.3,-6.3 14.1,-9.6 23.3,-10 9.2,0.4 17,3.7 23.3,10 z"
      id="path1" style="fill:url(#linearGradient7);fill-opacity:1" />
  </g>
</svg>